<svg viewBox="0 0 330 200" xmlns="http://www.w3.org/2000/svg"><g><g><g><g><g><line x1="41.171875" y1="177" x2="36.171875" y2="177" style="visibility: inherit;" fill="rgb(0, 0, 0)" stroke="rgb(204, 204, 204)" stroke-width="1px"></line><line x1="41.171875" y1="162.25" x2="36.171875" y2="162.25" style="visibility: inherit;" fill="rgb(0, 0, 0)" stroke="rgb(204, 204, 204)" stroke-width="1px"></line><line x1="41.171875" y1="147.5" x2="36.171875" y2="147.5" style="visibility: inherit;" fill="rgb(0, 0, 0)" stroke="rgb(204, 204, 204)" stroke-width="1px"></line><line x1="41.171875" y1="132.75" x2="36.171875" y2="132.75" style="visibility: inherit;" fill="rgb(0, 0, 0)" stroke="rgb(204, 204, 204)" stroke-width="1px"></line><line x1="41.171875" y1="118.00000000000001" x2="36.171875" y2="118.00000000000001" style="visibility: inherit;" fill="rgb(0, 0, 0)" stroke="rgb(204, 204, 204)" stroke-width="1px"></line><line x1="41.171875" y1="103.24999999999999" x2="36.171875" y2="103.24999999999999" style="visibility: inherit;" fill="rgb(0, 0, 0)" stroke="rgb(204, 204, 204)" stroke-width="1px"></line><line x1="41.171875" y1="88.5" x2="36.171875" y2="88.5" style="visibility: inherit;" fill="rgb(0, 0, 0)" stroke="rgb(204, 204, 204)" stroke-width="1px"></line><line x1="41.171875" y1="73.75" x2="36.171875" y2="73.75" style="visibility: inherit;" fill="rgb(0, 0, 0)" stroke="rgb(204, 204, 204)" stroke-width="1px"></line><line x1="41.171875" y1="59.00000000000001" x2="36.171875" y2="59.00000000000001" style="visibility: inherit;" fill="rgb(0, 0, 0)" stroke="rgb(204, 204, 204)" stroke-width="1px"></line><line x1="41.171875" y1="44.25" x2="36.171875" y2="44.25" style="visibility: inherit;" fill="rgb(0, 0, 0)" stroke="rgb(204, 204, 204)" stroke-width="1px"></line><line x1="41.171875" y1="29.499999999999993" x2="36.171875" y2="29.499999999999993" style="visibility: inherit;" fill="rgb(0, 0, 0)" stroke="rgb(204, 204, 204)" stroke-width="1px"></line><line x1="41.171875" y1="14.750000000000007" x2="36.171875" y2="14.750000000000007" style="visibility: inherit;" fill="rgb(0, 0, 0)" stroke="rgb(204, 204, 204)" stroke-width="1px"></line><line x1="41.171875" y1="0" x2="36.171875" y2="0" style="visibility: inherit;" fill="rgb(0, 0, 0)" stroke="rgb(204, 204, 204)" stroke-width="1px"></line></g><g transform="translate(31.171875, 0)"><text x="0" y="177" dx="0em" dy="0.3em" style="text-anchor: end; visibility: hidden; font-family: Roboto, sans-serif; font-size: 12px; font-weight: 200;" fill="rgb(33, 33, 33)" stroke="none" stroke-width="1px">0</text><text x="0" y="162.25" dx="0em" dy="0.3em" style="text-anchor: end; visibility: inherit; font-family: Roboto, sans-serif; font-size: 12px; font-weight: 200;" fill="rgb(33, 33, 33)" stroke="none" stroke-width="1px">0.5</text><text x="0" y="147.5" dx="0em" dy="0.3em" style="text-anchor: end; visibility: hidden; font-family: Roboto, sans-serif; font-size: 12px; font-weight: 200;" fill="rgb(33, 33, 33)" stroke="none" stroke-width="1px">1</text><text x="0" y="132.75" dx="0em" dy="0.3em" style="text-anchor: end; visibility: inherit; font-family: Roboto, sans-serif; font-size: 12px; font-weight: 200;" fill="rgb(33, 33, 33)" stroke="none" stroke-width="1px">1.5</text><text x="0" y="118.00000000000001" dx="0em" dy="0.3em" style="text-anchor: end; visibility: hidden; font-family: Roboto, sans-serif; font-size: 12px; font-weight: 200;" fill="rgb(33, 33, 33)" stroke="none" stroke-width="1px">2</text><text x="0" y="103.24999999999999" dx="0em" dy="0.3em" style="text-anchor: end; visibility: inherit; font-family: Roboto, sans-serif; font-size: 12px; font-weight: 200;" fill="rgb(33, 33, 33)" stroke="none" stroke-width="1px">2.5</text><text x="0" y="88.5" dx="0em" dy="0.3em" style="text-anchor: end; visibility: hidden; font-family: Roboto, sans-serif; font-size: 12px; font-weight: 200;" fill="rgb(33, 33, 33)" stroke="none" stroke-width="1px">3</text><text x="0" y="73.75" dx="0em" dy="0.3em" style="text-anchor: end; visibility: inherit; font-family: Roboto, sans-serif; font-size: 12px; font-weight: 200;" fill="rgb(33, 33, 33)" stroke="none" stroke-width="1px">3.5</text><text x="0" y="59.00000000000001" dx="0em" dy="0.3em" style="text-anchor: end; visibility: hidden; font-family: Roboto, sans-serif; font-size: 12px; font-weight: 200;" fill="rgb(33, 33, 33)" stroke="none" stroke-width="1px">4</text><text x="0" y="44.25" dx="0em" dy="0.3em" style="text-anchor: end; visibility: inherit; font-family: Roboto, sans-serif; font-size: 12px; font-weight: 200;" fill="rgb(33, 33, 33)" stroke="none" stroke-width="1px">4.5</text><text x="0" y="29.499999999999993" dx="0em" dy="0.3em" style="text-anchor: end; visibility: hidden; font-family: Roboto, sans-serif; font-size: 12px; font-weight: 200;" fill="rgb(33, 33, 33)" stroke="none" stroke-width="1px">5</text><text x="0" y="14.750000000000007" dx="0em" dy="0.3em" style="text-anchor: end; visibility: inherit; font-family: Roboto, sans-serif; font-size: 12px; font-weight: 200;" fill="rgb(33, 33, 33)" stroke="none" stroke-width="1px">5.5</text><text x="0" y="0" dx="0em" dy="0.3em" style="text-anchor: end; visibility: hidden; font-family: Roboto, sans-serif; font-size: 12px; font-weight: 200;" fill="rgb(33, 33, 33)" stroke="none" stroke-width="1px">6</text></g><line x1="41.171875" y1="0" x2="41.171875" y2="177" fill="rgb(0, 0, 0)" stroke="rgb(204, 204, 204)" stroke-width="1px"></line></g></g><g transform="translate(41, 0)" clip-path="url(#clip_0)"><clipPath id="clip_0"><rect width="288" height="177"></rect></clipPath><g><g><g><line x1="0" y1="0" x2="0" y2="177" fill="rgb(0, 0, 0)" stroke="rgb(66, 66, 66)" stroke-width="1px" opacity="0.25"></line><line x1="26.257102272727273" y1="0" x2="26.257102272727273" y2="177" fill="rgb(0, 0, 0)" stroke="rgb(66, 66, 66)" stroke-width="1px" opacity="0.25"></line><line x1="52.51420454545455" y1="0" x2="52.51420454545455" y2="177" fill="rgb(0, 0, 0)" stroke="rgb(66, 66, 66)" stroke-width="1px" opacity="0.25"></line><line x1="78.77130681818181" y1="0" x2="78.77130681818181" y2="177" fill="rgb(0, 0, 0)" stroke="rgb(66, 66, 66)" stroke-width="1px" opacity="0.25"></line><line x1="105.0284090909091" y1="0" x2="105.0284090909091" y2="177" fill="rgb(0, 0, 0)" stroke="rgb(66, 66, 66)" stroke-width="1px" opacity="0.25"></line><line x1="131.28551136363635" y1="0" x2="131.28551136363635" y2="177" fill="rgb(0, 0, 0)" stroke="rgb(66, 66, 66)" stroke-width="1px" opacity="0.25"></line><line x1="157.54261363636363" y1="0" x2="157.54261363636363" y2="177" fill="rgb(0, 0, 0)" stroke="rgb(66, 66, 66)" stroke-width="1px" opacity="0.25"></line><line x1="183.7997159090909" y1="0" x2="183.7997159090909" y2="177" fill="rgb(0, 0, 0)" stroke="rgb(66, 66, 66)" stroke-width="1px" opacity="0.25"></line><line x1="210.0568181818182" y1="0" x2="210.0568181818182" y2="177" fill="rgb(0, 0, 0)" stroke="rgb(66, 66, 66)" stroke-width="1px" opacity="0.25"></line><line x1="236.31392045454547" y1="0" x2="236.31392045454547" y2="177" fill="rgb(0, 0, 0)" stroke="rgb(66, 66, 66)" stroke-width="1px" opacity="0.25"></line><line x1="262.5710227272727" y1="0" x2="262.5710227272727" y2="177" fill="rgb(0, 0, 0)" stroke="rgb(66, 66, 66)" stroke-width="1px" opacity="0.25"></line><line x1="288.828125" y1="0" x2="288.828125" y2="177" fill="rgb(0, 0, 0)" stroke="rgb(66, 66, 66)" stroke-width="1px" opacity="0.25"></line></g><g><line x1="0" y1="177" x2="288.828125" y2="177" fill="rgb(0, 0, 0)" stroke="rgb(66, 66, 66)" stroke-width="1px" opacity="0.25"></line><line x1="0" y1="162.25" x2="288.828125" y2="162.25" fill="rgb(0, 0, 0)" stroke="rgb(66, 66, 66)" stroke-width="1px" opacity="0.25"></line><line x1="0" y1="147.5" x2="288.828125" y2="147.5" fill="rgb(0, 0, 0)" stroke="rgb(66, 66, 66)" stroke-width="1px" opacity="0.25"></line><line x1="0" y1="132.75" x2="288.828125" y2="132.75" fill="rgb(0, 0, 0)" stroke="rgb(66, 66, 66)" stroke-width="1px" opacity="0.25"></line><line x1="0" y1="118.00000000000001" x2="288.828125" y2="118.00000000000001" fill="rgb(0, 0, 0)" stroke="rgb(66, 66, 66)" stroke-width="1px" opacity="0.25"></line><line x1="0" y1="103.24999999999999" x2="288.828125" y2="103.24999999999999" fill="rgb(0, 0, 0)" stroke="rgb(66, 66, 66)" stroke-width="1px" opacity="0.25"></line><line x1="0" y1="88.5" x2="288.828125" y2="88.5" fill="rgb(0, 0, 0)" stroke="rgb(66, 66, 66)" stroke-width="1px" opacity="0.25"></line><line x1="0" y1="73.75" x2="288.828125" y2="73.75" fill="rgb(0, 0, 0)" stroke="rgb(66, 66, 66)" stroke-width="1px" opacity="0.25"></line><line x1="0" y1="59.00000000000001" x2="288.828125" y2="59.00000000000001" fill="rgb(0, 0, 0)" stroke="rgb(66, 66, 66)" stroke-width="1px" opacity="0.25"></line><line x1="0" y1="44.25" x2="288.828125" y2="44.25" fill="rgb(0, 0, 0)" stroke="rgb(66, 66, 66)" stroke-width="1px" opacity="0.25"></line><line x1="0" y1="29.499999999999993" x2="288.828125" y2="29.499999999999993" fill="rgb(0, 0, 0)" stroke="rgb(66, 66, 66)" stroke-width="1px" opacity="0.25"></line><line x1="0" y1="14.750000000000007" x2="288.828125" y2="14.750000000000007" fill="rgb(0, 0, 0)" stroke="rgb(66, 66, 66)" stroke-width="1px" opacity="0.25"></line><line x1="0" y1="0" x2="288.828125" y2="0" fill="rgb(0, 0, 0)" stroke="rgb(66, 66, 66)" stroke-width="1px" opacity="0.25"></line></g></g></g><g><g><line x1="0" y1="177" x2="288.828125" y2="177" fill="rgb(0, 0, 0)" stroke="rgb(153, 153, 153)" stroke-width="1.5px"></line></g></g><g><g><line x1="26.257102272727273" y1="0" x2="26.257102272727273" y2="177" fill="rgb(0, 0, 0)" stroke="rgb(153, 153, 153)" stroke-width="1.5px"></line></g></g><g><g><g><g><g><path stroke="rgb(255, 112, 67)" stroke-width="2px" d="M30.40572443181818,-0.5501286561420413L30.825838068181817,1.1380631229314822L31.193437499999998,2.0411787065979343L31.613551136363636,4.333951182851816L31.77109375,7.071381463752772L31.823607954545455,3.6425120807894475L32.19120738636364,5.730616777233651L32.87389204545455,9.190346044105079L33.556576704545456,7.701018027176334L34.13423295454545,8.877528352802303L34.396803977272725,10.606040914696786L34.55434659090909,13.143662728070003L35.02697443181818,14.323129018297161L35.079488636363635,14.373129033232315L35.60463068181818,16.870589214940175L35.86720170454546,14.90142150942004L35.972230113636364,16.65612173680437L36.02474431818182,19.108426047548388L36.234801136363636,20.23757088898724L36.654914772727274,21.48040385471074L37.07502840909091,21.782996937433712L37.127542613636365,23.365578896753544L37.39011363636364,23.43678098343322L37.96776988636364,22.58554117064136L38.282855113636366,22.88683391035699L38.54542613636364,26.54868924750773L38.702968750000004,26.3851238491058L39.33313920454545,21.885881104096512L39.64822443181818,26.126719574651524L39.91079545454546,26.522439158590974L40.278394886363635,27.659154795140093L40.488451704545454,31.113398018004514L40.59348011363637,32.587642349571276L41.591249999999995,34.98253011595483L41.853821022727274,35.85496063173059L41.906335227272734,35.30476428947919L42.16890625,35.786778747343334L42.43147727272727,37.668269908038305L42.536505681818184,35.81593653892422L42.95661931818182,37.38467539153229L43.009133522727275,35.778985815053886L43.37673295454546,38.88369998742032L43.58678977272727,40.30608335381232L44.05941761363636,40.44184741524159L44.47953125,40.540214020891824L45.31975852272728,41.20105788641219L45.52981534090909,42.40132397134942L46.05495738636364,38.200390635250706L46.15998579545455,39.72079294819764L48.36558238636364,44.843550979490004L48.418096590909094,48.24641712867917L48.523125,50.736813785813474L48.83821022727273,51.19137101303475L49.310838068181816,53.33914530832135L49.41586647727273,54.46040494774915L49.46838068181818,54.300288531393655L49.62592329545454,54.820475013977806L49.94100852272727,53.9370977830449L50.41363636363637,55.63619827935451L50.57117897727273,54.05530600374553L50.62369318181818,56.217116907987645L51.148835227272734,58.63559202894784L52.041576704545456,53.33906863060724L52.14660511363636,56.18425506309947L52.881803977272725,59.78181554052997L53.144375,60.35416303380589L53.24940340909091,58.817762960816985L53.406946022727276,57.28805596222017L53.827059659090914,60.88284196012934L54.14214488636364,60.026821360312226L54.24717329545455,62.48332718928L54.40471590909091,62.40401985597216L54.719801136363635,62.41987906903985L54.982372159090914,59.085155743425865L26.414644886363636,29.490539132395853L26.729730113636364,14.136124550604485L27.044815340909093,6.5795704479835475L27.254872159090908,-2.3409205463038685L29.82806818181818,-1.69724071114434L30.458238636363635,0.09295833057657832L30.825838068181817,3.334350514093017L30.878352272727273,4.884609370040288L30.98338068181818,-3.962461287613311L31.088409090909092,-4.566355976364347L31.140923295454545,0.18010619109790482L31.245951704545455,1.1637748886699537L31.876122159090908,3.702027845952218L32.03366477272728,7.569323950155577L32.24372159090909,8.691652353491776L32.401264204545456,9.463212428025237L32.55880681818182,9.44023414703121L32.76886363636364,11.138791729521229L32.821377840909086,12.163429170555746L33.031434659090905,11.530602592055109L33.294005681818184,12.111256872310705L33.87166193181818,13.876649638828331L34.08171875,15.056622565279426L34.239261363636366,15.482135808759947L34.659375,15.506429217036988L34.869431818181816,16.732153428659693L35.02697443181818,18.827471740881144L35.079488636363635,20.185729126834584L35.132002840909095,16.069293749751854L35.49960227272727,18.748867376102318L35.8146875,20.289316477449706L35.919715909090904,22.096214855952237L35.972230113636364,19.549216321255667L36.18228693181818,16.808304817167468L36.39234375,18.51654369276023L36.602400568181814,20.529284183032843L36.654914772727274,21.17911082735511L36.86497159090909,18.896598996107922L37.33759943181818,22.86817141853876L37.54765625,15.423288181323445L37.600170454545456,20.68554925614515L37.652684659090916,19.575925539099703L37.757713068181815,23.645879000522815L37.810227272727275,26.118583995162343L38.1253125,27.982649229800057L38.33536931818182,29.12278484275063L38.38788352272728,27.58701776844336L38.49291193181818,27.822081895959812L38.59794034090909,27.676452357943333L38.75548295454546,29.134509396180796L38.8079971590909,27.12886123158054L38.86051136363636,29.326028611049157L38.913025568181816,28.876015916934684L39.07056818181818,29.832539806050686L39.280625,28.68318820552981L39.54319602272727,27.631219151955584L39.595710227272725,28.14784074028833L39.64822443181818,30.089578582051434L39.9633096590909,29.381252451660064L40.85605113636363,34.03132944340815L41.06610795454546,34.392327290983836L41.171136363636364,35.36853321922531L41.433707386363636,34.53451075871414L42.69404829545454,37.543265335080775L42.799076704545456,37.576333804319944L43.06164772727272,35.94942052566449L43.166676136363634,36.3340228522029L43.37673295454546,39.86815090919771L43.48176136363636,42.46914608445904L43.901875,44.039820570749896L44.21696022727272,36.49897779166868L44.42701704545455,41.29685428822142L44.794616477272726,43.31431576659742L44.89964488636364,45.91601703793087L45.214730113636364,47.12023323911595L45.31975852272728,46.17720424019198L45.477301136363636,46.013519924181104L45.63484375,49.199680329142446L46.05495738636364,48.34333210037852L46.10747159090909,49.67114627865975L46.26501420454545,50.522368553328675L46.63261363636364,50.63114326181899L46.79015625,51.59173641790682L47.26278409090909,51.557659591375185L47.472840909090905,52.57538068600797L47.63038352272728,52.960783030440226L47.68289772727273,54.79905444732298L48.155525568181815,55.31652201623315L48.20803977272727,56.097364744011124L48.418096590909094,57.71249742535567L48.523125,57.47805864350685L48.57563920454545,55.55394086084775L48.78569602272727,53.795693831694216L48.83821022727273,54.764723752172046L48.99575284090909,56.74160860433055L49.048267045454544,57.826796903931324L49.46838068181818,59.75426562710001L49.678437499999994,58.20455083896751L49.78346590909091,58.81462570220255L49.88849431818182,59.5242553007008L49.94100852272727,60.384449210846505L50.41363636363637,60.451359681537205L50.57117897727273,59.44867988362936L50.99129261363636,61.08420278987305L51.096321022727274,62.69802271342884L51.358892045454546,61.60966522107487L51.62146306818182,60.51596926814297L51.989062499999996,63.13280462721574L52.67174715909091,61.80777439772838L52.98683238636364,64.318066938518L53.144375,65.87675343978317L53.24940340909091,66.05839554684111L53.45946022727273,67.63427558074444L53.66951704545455,68.97765478211672L53.77454545454545,68.4391312165143L54.037116477272725,67.87121999043713L54.089630681818186,69.41434709893757L54.14214488636364,70.8475303212827L54.56225852272728,70.80659777879868L54.87734375,71.58719624853227L55.08740056818181,66.36122449503002L55.13991477272727,67.86718416372332L55.66505681818182,69.65231137370702L55.92762784090909,68.06549952564022L56.66282670454545,62.096333921774516L56.767855113636365,65.1527340536262L57.81813920454545,69.66718564778243L57.870653409090906,70.23035909145877L58.08071022727273,72.01465431100014L58.13322443181818,73.30818013695409L58.18573863636363,76.16558430401997L59.13099431818182,78.16580017690966L59.39356534090909,79.57207994631L59.76116477272727,80.51894543749728L59.81367897727273,81.06131705154561L60.128764204545455,80.92422142332545L60.23379261363636,80.65081452551931L60.49636363636363,81.3423321677652L60.601392045454546,76.86591770848078L61.86173295454546,78.5221880590942L61.96676136363636,81.060051507713L62.07178977272727,81.83120006737803L62.49190340909091,83.59002553473528L62.649446022727275,82.05062868029246L63.06955965909091,84.72233120101912L63.22710227272727,82.59253544508351L63.38464488636364,85.01946846782526L64.06732954545456,85.32699532591914L64.43492897727273,85.30164477398169L64.75001420454545,86.20962045890194L65.06509943181818,87.5369868177301L65.11761363636364,88.33380050051964L65.43269886363636,88.79067050569508L65.9578409090909,89.95723154040132L66.22041193181818,91.00551582510442L66.27292613636364,86.86624775609477L66.43046875,89.14899841714562L66.74555397727273,91.36495752196706L66.85058238636364,90.72562314904451L67.008125,89.45973120830486L67.16566761363637,90.63566652954833L67.32321022727272,89.65617818845044L67.37572443181818,91.7585579586788L68.32098011363637,92.88628750042699L69.10869318181818,86.82462609408249L69.89640625,91.3651005065319L70.05394886363636,94.02526915287238L70.10646306818182,94.10064513811626L70.21149147727273,95.2761719663689L70.26400568181819,94.47230036495623L71.36680397727272,96.47548946999608L71.41931818181818,98.1595530108398L71.68188920454546,97.40133759950312L71.83943181818181,97.66713803753088L72.04948863636363,98.61949606981774L72.15451704545455,98.15723097471532L72.36457386363637,98.11542999832713L72.57463068181818,98.89177129321624L72.7846875,100.48572510274248L74.09754261363635,100.12259908790587L74.15005681818182,95.46494500801084L74.72771306818183,98.70179458239747L75.14782670454545,98.76561496126101L75.20034090909091,100.15077646653319L75.35788352272728,102.45324416208545L75.46291193181818,102.68207437544037L75.51542613636363,103.08237470834833L75.98805397727273,102.84544914751874L76.3556534090909,102.93927107924L77.14336647727274,103.67610255881416L77.19588068181818,103.42776017191568L77.35342329545455,105.25364010812379L78.35119318181819,105.81787176896059L78.61376420454546,105.97274754028868L78.6662784090909,107.18093975532861L78.77130681818181,106.14135122387891L79.13890625,107.08437204414182L79.50650568181818,108.20952420266609L79.55901988636363,108.65284135837639L80.03164772727273,108.73281928836873L80.24170454545454,109.72879446112854L80.34673295454546,109.29796340801563L80.55678977272727,108.63446208678631L81.02941761363637,108.8577829172787L81.39701704545455,110.01525416198831L81.44953124999999,110.08704084291138L81.71210227272726,108.0549572595005L82.13221590909092,110.06243559646872L82.60484374999999,106.81955655174413L82.65735795454546,108.36248512123203L82.86741477272727,109.79971858891355L83.12998579545454,109.82137101311983L83.28752840909091,111.41527343642416L83.39255681818182,111.65206118137657L83.55009943181818,111.513134692377L83.70764204545455,112.45398338691362L83.91769886363636,105.59052867922766L84.3378125,109.57413575192439L84.75792613636364,109.92887156689257L84.96798295454545,111.6425338833576L85.12552556818181,113.1502508788732L85.17803977272727,112.25839517530368L85.49312499999999,113.5684609294925L85.54563920454545,113.19409922844136L85.96575284090909,114.48431065133786L86.17580965909092,113.15080191166147L86.22832386363636,107.35053478164043L86.28083806818182,110.88669063140492L86.38586647727273,112.18263250285115L86.5434090909091,113.90881904181077L86.91100852272727,113.15743036399027L86.96352272727272,113.13350731927004L87.38363636363637,113.83004211662917L87.43615056818182,114.24854535626596L87.9087784090909,114.86004449586405L88.11883522727273,115.54038373029434L88.22386363636365,115.56952919600128L88.38140625,116.35697115682194L88.64397727272727,117.24044972194808L88.69649147727273,115.0545855851983L88.80151988636365,116.54034638953298L88.8540340909091,116.57731719346101L88.90654829545454,116.94600178916008L89.16911931818183,115.9533917076513L89.90431818181818,117.06081445021181L90.37694602272727,117.37141613365857L90.69203125,117.6354618799785L91.05963068181818,118.64802052569979L91.11214488636362,119.4180387138879L91.58477272727272,119.95935765979026L91.9523721590909,119.85284583614667L92.58254261363636,119.51844039467812L92.95014204545456,120.06068186108972L93.05517045454546,120.73677699652137L93.26522727272727,116.60796986154809L93.79036931818183,118.93180230934675L93.84288352272728,120.14778811740432L94.00042613636363,120.47396644954416L94.2629971590909,119.07964444759209L94.47305397727273,120.03969750763605L95.15573863636364,119.29789653993626L95.31328125,120.4724019025384L95.62836647727273,121.90442927209249L95.68088068181818,122.3357916565401L95.73339488636364,121.7127144510545L96.5736221590909,122.72101667970406L97.51887784090908,123.75077285438766L97.83396306818182,123.20533751291033L98.20156250000001,123.982953398478L98.51664772727273,124.84139013829946L98.72670454545454,124.66122541751335L98.83173295454546,123.68856774524374L98.93676136363636,124.59409188482478L99.25184659090908,124.43089248689003L99.40938920454546,124.77392157287589L99.51441761363637,123.68431306106562L99.67196022727273,124.46527218951414L99.82950284090909,125.12124419291992L99.98704545454547,124.32998676347839L100.45967329545454,125.01205629854266L100.56470170454546,125.96165608614007L101.1948721590909,126.65173966437173L101.24738636363637,125.81456562727446L101.29990056818181,125.64972265273185L102.03509943181818,126.36088273352297L102.24515625,126.10005494013971L102.45521306818182,126.83209238085476L102.66526988636365,127.36594573040801L102.71778409090909,126.72912034618854L102.87532670454544,127.25729509131908L102.98035511363636,127.05531327686785L103.08538352272727,127.46388581253338L103.50549715909092,127.59551109586506L103.61052556818181,125.65626843997448L103.7680681818182,127.30436141627197L103.92561079545455,127.5339855631421L104.08315340909091,127.9594014811653L104.18818181818182,128.22302915621626L104.34572443181817,128.52155200224416L104.50326704545455,128.18913171041785L105.34349431818183,128.95114525168404L105.71109375,129.42042260175504L105.97366477272728,129.46111371997333L106.02617897727272,127.84435428907476L106.07869318181818,128.44667814809085L106.1837215909091,128.43599146984818L106.23623579545455,128.68016499509096L106.34126420454545,128.60668848889875L106.44629261363637,128.7273165639508L106.65634943181817,120.33099652864149L106.86640625,122.74814694844254L107.12897727272727,126.06833437515834L107.23400568181818,128.05828337331735L107.60160511363637,129.41160874641017L107.75914772727272,127.52628684685276L108.02171875,128.34529624370126L108.23177556818182,129.62930253736607L108.4943465909091,130.1659389233138L108.599375,129.55345887515224L108.65188920454545,129.4485186968641L109.17703125,130.40517202820757L109.22954545454546,130.74054362658487L109.43960227272727,131.3010412590732L109.59714488636364,131.68804465156973L109.7546875,131.72391780866488L109.80720170454545,131.17773797901455L109.96474431818183,131.39872688527097L110.01725852272727,131.0111534981441L110.12228693181818,131.54711387088963L110.38485795454545,129.67035807091636L110.4373721590909,129.8139800603309L110.80497159090908,127.28534152359477L110.85748579545455,126.23062073141759L111.06754261363636,128.68139514297502L111.17257102272728,129.87956231218732L111.27759943181817,131.14264541496132L111.48765625,131.78173860090547L112.01279829545456,131.58249428378087L112.11782670454545,132.152303019205L112.22285511363636,132.73332209529835L112.27536931818183,132.3146459051511L112.48542613636363,132.23455732992537L112.64296875000001,132.49135340411215L113.06308238636363,132.83093138431758L113.27313920454546,133.22577283319978L114.00833806818181,133.90515829048843L114.21839488636364,133.85181408478195L114.32342329545453,133.71762708040103L114.58599431818182,133.36495806701197L114.63850852272728,133.4743685121966L114.74353693181818,133.77755204413134L114.84856534090909,133.01914291127798L114.90107954545454,132.9864654573457L115.00610795454546,132.88547048763374L115.11113636363636,128.98149200556244L115.16365056818181,131.33731250928378L115.53125,133.03641501049125L115.68879261363637,133.83782021391346L115.95136363636364,134.59163320176575L116.58153409090909,135.19280290670855L116.79159090909091,135.26194150488175L116.94913352272727,135.62015039468167L117.47427556818181,135.52116193022943L117.78936079545454,135.2130738833345L117.84187499999999,135.61501750581246L117.94690340909091,136.01715732355584L118.10444602272727,136.2638034387807L118.26198863636364,134.83532240178465L118.31450284090909,134.67036024443078L118.36701704545455,135.28798124618393L118.89215909090909,135.7062301005546L118.94467329545454,135.9583666423335L118.9971875,136.0010860263928L119.10221590909092,135.97771772740035L119.73238636363637,136.35602253078073L119.78490056818181,136.82897847532422L119.83741477272727,136.50207315468305L119.88992897727272,136.44317590346046L120.31004261363637,136.79910833329026L120.78267045454545,133.7984150570039L121.67541193181819,134.88653606900002L122.41061079545455,135.76618632512344L122.62066761363637,135.6361685325924L122.67318181818182,136.38028591455358L122.77821022727272,137.20725906837785L123.19832386363638,136.89769135087016L123.30335227272727,137.41164084773828L123.5134090909091,135.63686507047157L124.03855113636364,135.94168506324854L124.45866477272727,137.00231076634267L124.51117897727272,137.8674388012668L125.08883522727272,136.37014897354726L125.50894886363638,137.37279903702904L125.8240340909091,138.04609546549898L125.87654829545455,138.532340988444L125.98157670454545,138.157549157695L126.08660511363637,138.41572018561126L126.34917613636362,138.91185412464952L127.34694602272728,139.25176270996582L127.66203125,138.84028287050157L127.71454545454546,138.86747469494958L128.2396875,139.54326323264965L128.3447159090909,138.68201067205746L128.5022585227273,139.2848837504177L128.55477272727273,139.54191339787178L128.60728693181818,139.98503017888265L129.18494318181817,140.3305543212044L129.34248579545456,140.0761252849071L129.65757102272727,140.44895321183017L129.92014204545455,137.9756324651993L130.02517045454545,139.02359046716433L130.13019886363637,139.90528446542584L130.2352272727273,140.01634556119063L130.70785511363636,140.21292895117054L130.91791193181817,140.827405226461L131.12796875,141.04533539547438L131.2329971590909,140.81388591726966L131.39053977272727,137.55048932433337L131.86316761363636,139.50523232102518L131.9156818181818,139.8903318803318L132.44082386363635,141.00505865578697L132.54585227272727,141.33154509642628L133.17602272727274,141.86491106855217L133.22853693181818,141.58149470631685L133.28105113636363,137.56803384866956L133.33356534090908,138.19831025270608L133.49110795454547,139.92031962673656L133.70116477272728,140.98522877097602L134.01625,141.0524263584642L134.06876420454546,141.1087739112394L134.22630681818183,141.5643638874541L134.64642045454545,142.22809260520043L134.90899147727274,141.6646601523918L135.0665340909091,142.41755596196427L135.22407670454547,142.58353414175374L135.2765909090909,142.75524240754524L135.59167613636365,143.0367934347539L135.69670454545454,143.1151893878787L136.01178977272727,143.20779039530808L136.16933238636364,137.90220111649546L136.326875,139.07990456844158L136.58944602272726,140.83553784623615L137.5872159090909,142.13268381079956L137.7972727272727,141.99200116229608L137.90230113636363,142.83953832764956L138.16487215909092,143.24145335662087L138.42744318181818,143.57541302864385L139.1101278409091,143.78573117270847L139.32018465909093,144.00368052491416L139.47772727272726,143.96346944432776L140.2654403409091,144.263741909631L140.84309659090908,144.41562148283L140.89561079545456,144.4087254545097L141.05315340909092,144.58015567904738L141.36823863636363,144.91446723250166L141.7358380681818,144.58044375006924L141.78835227272728,143.16623695507388L141.84086647727273,143.98915710338795L141.89338068181817,144.55781575613526L141.94589488636365,144.8324951682884L141.9984090909091,144.57926311221112L142.41852272727272,144.48914278820985L143.62634943181817,144.17277453706166L143.67886363636362,144.76375087717474L143.7313778409091,144.57212405573904L144.09897727272727,144.97597554428327L144.67663352272726,144.99309691848129L144.7816619318182,139.01763744987113L145.41183238636364,137.6171053638283L145.4643465909091,139.44788150729082L145.62188920454545,142.13143737758006L145.72691761363635,143.7738075473595L145.77943181818182,144.23198174349596L145.88446022727274,144.96581081695635L146.88223011363635,145.01679275123644L147.14480113636364,141.57919577174405L147.30234375,143.60488931782854L147.45988636363637,144.60614702968485L147.93251420454544,145.57383423965388L147.98502840909092,145.7908112163616L148.30011363636365,146.16413602562383L148.40514204545454,146.3358224948146L148.45765625,146.62908925532687L148.77274147727272,146.995014416691L148.9302840909091,147.10121022910855L149.24536931818182,147.0690041020571L149.3503977272727,146.72114570349805L149.45542613636366,147.00350324756118L149.61296875,147.31926627425082L150.34816761363635,147.0140996662839L150.45319602272727,144.08907708454512L150.50571022727271,145.4827021654152L150.55822443181816,146.3819944796385L151.13588068181818,146.8229792080773L151.66102272727272,147.45090647712072L152.08113636363638,147.58631068572234L152.9738778409091,147.00967985454102L153.34147727272727,147.47179085053742L153.39399147727272,147.96916607640824L153.55153409090912,147.8861671186843L154.07667613636363,148.27709069832318L154.39176136363636,147.8730414568433L154.60181818181817,148.12108806723649L154.86438920454546,148.33498364659724L154.96941761363635,148.59806587679728L155.07444602272727,148.59352927436558L155.17947443181816,148.73585816043692L155.2845028409091,148.6227617491369L155.49455965909092,148.78702337915212L155.54707386363637,148.4605255924136L155.7046164772727,148.67022885098876L156.01970170454547,143.46419974097503L156.12473011363636,145.78437259154853L156.28227272727273,146.92520572160086L156.70238636363638,147.54828196414948L156.80741477272727,147.93023716001892L156.85992897727272,147.81067226284256L156.91244318181816,148.48510122271483L157.3325568181818,148.8824875233895L158.12026988636362,149.24291694631137L158.22529829545456,149.19493241590237L158.33032670454546,149.23197242904888L158.43535511363638,149.47314807945003L158.54038352272727,149.51448786958164L159.01301136363637,149.53551342907014L159.22306818181818,149.59387788070717L159.9057528409091,149.8110743337481L160.11580965909093,149.85367369494492L161.11357954545454,149.92513575459512L161.90129261363637,149.72318917694682L161.95380681818182,149.9929790269315L162.26889204545452,146.0113690239775L162.32140625000002,147.88279243365454L162.42643465909092,147.78589723143295L162.58397727272728,148.7905679323275L162.84654829545454,149.7379797922372L163.05660511363638,149.26880198876853L163.16163352272727,149.73287451363083L164.00186079545455,150.12661359367655L164.36946022727273,150.57505948339633L164.57951704545454,150.77049278613765L164.94711647727271,150.94869039891267L164.9996306818182,150.98567568324867L165.36723011363637,150.7403302494458L165.52477272727273,150.99268608711787L166.78511363636363,151.36047632350105L166.94265625,151.53024449857222L167.31025568181818,151.75100555963604L167.46779829545454,151.7617578443723L167.5203125,151.18232006650194L167.62534090909094,151.41290270579472L167.67785511363638,150.33940078790553L168.04545454545453,150.77294360384684L168.15048295454545,151.34818579426613L168.72813920454544,151.3795832972002L168.99071022727273,151.31971722723677L169.46333806818183,151.55124908615133L169.56836647727272,151.78657641368497L169.67339488636364,151.9867833039605L169.88345170454545,152.13423058876057L170.04099431818182,151.91389910869992L170.72367897727273,152.25984902675864L170.82870738636365,151.96242599186849L171.14379261363638,151.99517236052483L171.56390625,152.1292682284029L171.87899147727273,152.03360438310574L171.93150568181818,146.91254501321L171.98401988636363,149.25529342161465L172.19407670454544,150.33217001716406L172.45664772727272,150.79450755572384L172.8242471590909,151.57005821023026L173.24436079545455,152.24327256890322L173.45441761363634,151.6835966265928L173.66447443181818,152.18166832665986L173.7695028409091,152.56756590926878L174.08458806818183,152.84674132540363L174.2421306818182,152.98378795787417L174.3471590909091,149.12304996493293L174.4521875,150.85021120931407L174.5572159090909,151.59978508130135L174.7147585227273,152.27651453718792L174.97732954545455,152.58819421950133L175.6075,152.57417135729284L175.87007102272727,152.83505469139752L176.13264204545453,153.0236792658349L177.07789772727273,152.44892012444615L177.28795454545454,153.051555093333L177.4454971590909,153.3856237269669L177.7080681818182,153.4542487107056L178.07566761363634,153.56393765463457L178.28572443181818,153.69872073563354L178.3907528409091,153.8975025548483L178.7058380681818,153.69305547082095L178.75835227272728,153.4836372018079L179.0734375,153.5142637181413L179.4410369318182,153.35073192644907L179.7561221590909,153.64021503763672L179.91366477272726,152.36081097029015L180.22875,153.0962006420038L180.80640625,153.45174646199595L180.9114346590909,153.68232816350968L181.2790340909091,154.00343662436313L181.43657670454544,153.54831627568905L181.5941193181818,150.17890541292016L181.69914772727273,151.8405142696904L181.96171875,152.94036691619198L182.80194602272726,153.49677083035255L182.90697443181818,154.05988414967027L182.95948863636366,154.40157124927023L183.16954545454544,153.6950482340478L183.22205965909092,153.838367617835L183.4321164772727,154.17079369825683L183.53714488636365,154.1840836560879L183.85223011363635,153.78477472997628L183.9047443181818,154.24220753274514L184.27234375,154.64597461558674L184.90251420454547,154.39040042124566L185.16508522727273,154.46140704847798L185.3226278409091,150.74073091922654L185.79525568181816,152.35155833827528L185.84776988636364,153.61633486191676L186.16285511363637,153.8852774419799L186.2153693181818,154.33523532857984L186.95056818181817,154.796949679318L187.160625,152.08221848884995L187.2656534090909,153.44169323491917L187.37068181818182,154.40124732761302L187.52822443181816,154.27398327892254L187.68576704545455,154.3764934414937L188.15839488636365,154.93689320530376L188.47348011363636,155.06030465391805L188.57850852272728,155.1207307411881L189.15616477272727,155.40559907160116L189.2086789772727,155.53409772754856L189.52376420454547,155.44088721061436L189.89136363636362,155.19707203975133L191.15170454545455,155.61885450524574L191.30924715909092,155.64679987575107L191.46678977272728,155.8847658952802L191.57181818181817,156.03235491041715L192.6746164772727,156.2250011678003L192.83215909090907,156.3920026967205L193.0422159090909,156.50187306101785L193.09473011363636,156.46079203185838L193.1472443181818,156.25689431844592L193.46232954545457,156.27044278871082L193.6198721590909,156.33825475270189L193.72490056818182,156.3747697490134L194.19752840909092,155.8382857690858L194.56512784090907,155.23925473991676L194.82769886363636,155.91894367160583L195.2478125,156.22069062484613L195.45786931818182,156.54586897905654L195.5628977272727,156.61217428812972L195.66792613636363,156.23479060870164L196.35061079545454,156.41763725603673L196.45563920454546,156.55972326234016L196.61318181818183,156.80407904645818L197.24335227272726,157.03334631360184L197.45340909090908,157.15221555135614L197.71598011363636,157.10177858532646L197.82100852272728,157.0858904591869L198.34615056818183,156.80064119527762L198.45117897727272,156.87483662146346L198.55620738636364,157.02699293957957L199.23889204545452,156.52006601254232L199.55397727272728,156.52393322563222L200.07911931818182,156.56923645362883L200.34169034090908,156.12156119123478L200.7092897727273,156.66303455934155L200.86683238636363,156.83523373666543L200.97186079545455,157.07932078160724L202.02214488636363,152.55945813249278L202.07465909090908,154.32038911337096L202.12717329545453,155.40403945538065L202.3897443181818,156.32585475023188L202.49477272727273,156.8595438431239L202.80985795454544,157.12222521487092L203.01991477272728,157.19697838415632L203.44002840909093,157.42498288983063L203.75511363636363,157.6503565456507L203.80762784090908,157.19850787794815L204.01768465909092,157.3096801357044L204.59534090909094,157.6509998629435L204.91042613636364,157.8800229901042L205.22551136363637,157.78610231125154L205.38305397727274,157.0884942391145L206.17076704545454,155.34960819355416L206.38082386363638,156.56807119293074L206.74842329545453,157.22205365087427L206.95848011363637,157.74348888627193L207.22105113636363,158.02585905689898L207.48362215909088,158.2186262482339L207.69367897727273,155.78010018312537L207.7461931818182,156.63889108683827L207.8512215909091,156.99761596075393L208.3238494318182,157.7659301683408L208.37636363636364,157.8735435918034L208.95401988636362,158.0445768424905L209.05904829545455,156.47825362616996L209.1115625,157.45947032174004L209.4791619318182,158.0186272203954L209.5841903409091,154.91379712462614L209.63670454545453,156.1588666584503L209.68921874999998,157.07157045283387L209.74173295454545,157.78791501330417L209.9517897727273,158.230292452616L210.0568181818182,158.27822317674307L211.2121306818182,158.26291416880218L211.36967329545453,158.64762861011462L212.1048721590909,158.82280520485662L212.3674431818182,158.95531308583512L212.41995738636365,159.07736183364446L212.52498579545454,159.10989402031456L212.9450994318182,159.14965319809647L213.20767045454545,159.17664909468493L213.57526988636363,159.25841502014637L215.04566761363634,159.4178200701704L215.41326704545455,159.35685364841405L215.99092329545454,159.4510230328976L216.2534943181818,159.42817583717937L216.7261221590909,159.58671421431322L216.77863636363637,159.70539543999922L217.35629261363636,159.70502297862583L217.4088068181818,159.45823915472158L217.51383522727275,159.74704738658983L217.61886363636364,159.73379035116622L217.72389204545456,159.59703653646343L217.77640625,159.42527389283677L217.82892045454545,159.63628061864196L217.93394886363635,159.74652297647847L218.87920454545454,158.79901312203438L219.1417755681818,159.17909345871945L219.40434659090909,159.33442176489078L219.56188920454545,159.6582000321629L219.71943181818182,156.13082290092007L219.9820028409091,157.8265690469676L220.5596590909091,158.79458144092166L221.0322869318182,159.26810570230248L221.18982954545456,159.44711953204967L221.24234375,159.77422571064292L221.7149715909091,158.79882717061793L222.0300568181818,159.35204796748613L222.8702840909091,159.62675923560414L223.1853693181818,159.64712384017915L223.39542613636365,159.89824715061553L223.55296875000002,160.19186057331302L223.86805397727272,160.24616743136727L223.97308238636364,160.3810108006554L224.4457102272727,159.828697460923L224.65576704545455,160.21262416722382L224.97085227272726,160.35238855768446L225.23342329545454,160.57483368926765L225.54850852272727,160.64268525727704L225.75856534090912,160.68066655569143L226.02113636363637,160.79504289014858L226.38873579545455,160.83716140856575L226.59879261363636,160.90606108111282L227.07142045454546,160.77460840226496L227.22896306818183,160.93685333061984L227.85913352272726,160.90767457561952L228.22673295454547,160.84775834368028L228.3842755681818,160.92304874114012L228.48930397727273,161.067823628496L228.54181818181817,161.16385864014083L228.751875,161.05109045979174L228.80438920454546,161.00796538637158L228.8569034090909,161.02909491089628L229.48707386363637,161.14725174681928L229.80215909090907,161.14118484363905L229.85467329545455,161.14756370607586L229.95970170454547,161.27096427097064L230.22227272727272,161.264162603701L230.27478693181817,161.01777432184508L230.43232954545456,161.2163485158747L230.74741477272727,161.24310930188093L230.95747159090908,161.2951533056235L231.32507102272726,161.35875913244104L231.85021306818183,161.32677623475558L232.16529829545453,161.24677687194924L232.37535511363637,161.2315660196959L232.5328977272727,161.1326982068073L232.95301136363636,161.28592670482703L233.05803977272728,161.40824716402474L233.74072443181817,161.29923096366753L233.95078125,161.02930132787245L234.00329545454548,161.18778147840987L235.0010653409091,161.1121533307105L235.05357954545454,161.32524565414604L235.21112215909093,159.87814521524916L235.57872159090908,160.64655911763674L235.68374999999997,161.09064443016152L236.10386363636363,161.2123992508894L236.20889204545455,161.48521681226768L236.26140625,161.54627814052984L236.94409090909093,161.63347767685943L237.04911931818182,160.91857868966517L237.10163352272727,161.12998484693202L237.57426136363637,160.82226539327047L237.73180397727273,161.24661053820455L238.30946022727272,161.53450013163092L238.4670028409091,161.4014787731314L238.57203124999998,161.6749264155474L238.67705965909093,161.46192736355343L239.30723011363636,161.6367721970551L240.1999715909091,161.53901246879533L240.46254261363637,161.63468376215718L240.98768465909092,161.75796720633758L241.30276988636365,161.9879819467655L241.67036931818183,161.90135831326194L241.98545454545453,161.69693561011522L242.09048295454545,161.9027766204713L242.3005397727273,161.9851895938419L242.66813920454544,162.12211183131356L242.7206534090909,162.25137875926862L242.7731676136364,162.27395184905748L243.2983096590909,162.4557038490261L244.13853693181818,162.61125673319611L244.40110795454544,162.58897252956456L244.66367897727272,162.42833143520014L244.92624999999998,160.98034898071086L244.97876420454546,161.69087883012648L245.08379261363635,162.14401700602266L245.24133522727274,160.81496711079058L245.7664772727273,161.47546336951123L245.9765340909091,161.91085704506796L246.02904829545454,161.14854417050694L246.34413352272728,161.66581144812594L246.5541903409091,162.14293636609847L246.60670454545453,161.8618852837666L247.0268181818182,162.27481018565797L247.18436079545455,162.550448131935L247.236875,161.02474991820827L247.3419034090909,161.67381311263188L247.49944602272728,161.5845750737521L247.55196022727273,162.15368084122733L247.60447443181818,162.4129642010331L247.65698863636365,162.50281601909398L247.86704545454543,162.58235733368159L247.97207386363635,160.12356636916493L248.12961647727275,161.29608711001214L248.1821306818182,161.92985652325711L248.23464488636364,162.38054203056194L248.28715909090909,162.62139815129578L248.3921875,162.78605920098863L248.54973011363634,162.85859471573022L248.6022443181818,162.94033558972828L248.91732954545455,162.81348768358322L249.23241477272728,162.8118543594175L249.3374431818182,162.86933660919033L249.49498579545454,163.02211315878964L250.12515625,163.071203770928L250.54526988636366,163.11247064631726L250.5977840909091,160.4285910127255L250.65029829545455,161.0016866682585L250.96538352272728,161.94663930884693L251.33298295454546,160.95121450991448L251.59555397727274,161.70396718842397L251.9631534090909,162.3820736137784L252.17321022727273,162.71630795167425L252.6458380681818,162.9642438254746L252.96092329545453,163.1381295241113L253.06595170454545,163.13430352313492L253.22349431818182,163.31981097640497L253.59109375,163.4015145479554L253.90617897727273,163.44286998980726L254.0637215909091,163.38325002118043L254.16875,163.43644215657767L254.22126420454546,163.5537130951551L254.69389204545456,163.6046291541855L255.2190340909091,163.40352175544504L255.27154829545455,163.44327919430017L255.6916619318182,163.50675602404166L256.32183238636367,163.59150662808352L256.479375,163.57393376701316L256.63691761363634,163.15634171171928L257.31960227272725,163.36859555246798L257.73971590909093,163.19309892178993L258.15982954545456,163.52400180650605L258.21234375,163.65012255878955L258.36988636363634,163.63641733271902L258.4749147727273,163.7696590920867L258.52742897727273,163.7151282906879L259.2626278409091,159.3490997004717L259.5777130681818,161.10658122588453L259.6827414772727,162.27727933817658L260.4704545454546,163.01758966501686L260.8380539772727,163.37276075277407L261.1531392045455,163.67242915030528L261.3106818181818,163.60378455279L261.36319602272727,163.49528865312175L261.5207386363636,163.58465152558466L261.67828125,163.82941243992317L262.0458806818182,163.89693387714664L262.3609659090909,163.93853655676628L262.4659943181818,163.64270751011722L262.51850852272725,163.78569267590254L262.5710227272727,163.41519707679396L262.8861079545455,163.74737371349124L263.1486789772727,163.43305679168574L263.8313636363636,163.47115461234017L264.6190767045455,163.68193768384316" style="fill: none;" fill="none"></path></g></g></g></g><g opacity="0.2"><g><g><g><path stroke="rgb(255, 112, 67)" stroke-width="2px" d="M29.040355113636366,-8.006017923355115L29.19789772727273,1.3188512325286932L29.985610795454548,3.4472689628601008L30.14315340909091,-1.1212844848632944L30.40572443181818,1.8082878589630194L30.825838068181817,3.6648385524749822L31.193437499999998,3.3940827846527166L31.613551136363636,7.770414829254144L31.77109375,11.175596237182617L31.823607954545455,-1.4993410110473502L32.19120738636364,8.862243652343757L32.87389204545455,14.379412889480584L33.556576704545456,5.46716213226319L34.13423295454545,10.642229318618774L34.396803977272725,13.198752880096436L34.55434659090909,16.950045347213745L35.02697443181818,16.092314481735222L35.079488636363635,14.448128700256348L35.60463068181818,20.616768836975098L35.86720170454546,11.94767498970031L35.972230113636364,19.28816938400268L36.02474431818182,22.78688025474549L36.234801136363636,21.931287527084343L36.654914772727274,23.34465289115905L37.07502840909091,22.236886501312263L37.127542613636365,25.739451646804817L37.39011363636364,23.543584108352654L37.96776988636364,21.30868148803711L38.282855113636366,23.338773012161262L38.54542613636364,32.04147219657898L38.702968750000004,26.139775753021233L39.33313920454545,15.137017011642463L39.64822443181818,32.48797726631164L39.91079545454546,27.116018533706672L40.278394886363635,29.3642282485962L40.488451704545454,36.29476284980773L40.59348011363637,34.799008846282966L41.591249999999995,38.574861764907844L41.853821022727274,37.163606405258186L41.906335227272734,34.47946977615357L42.16890625,36.509800434112556L42.43147727272727,40.49050664901733L42.536505681818184,33.03743648529053L42.95661931818182,39.73778367042541L43.009133522727275,33.37045145034791L43.37673295454546,43.540771245956414L43.58678977272727,42.439658403396606L44.05941761363636,40.64549350738526L44.47953125,40.687763929367065L45.31975852272728,42.19232368469238L45.52981534090909,44.20172309875488L46.05495738636364,31.89899063110351L46.15998579545455,42.00139641761779L48.36558238636364,52.52768802642823L48.418096590909094,53.350716352462776L48.523125,54.472408771514885L48.83821022727273,51.873206853866584L49.310838068181816,56.560806751251214L49.41586647727273,56.142294406890876L49.46838068181818,54.060113906860344L49.62592329545454,55.600754737854L49.94100852272727,52.61203193664551L50.41363636363637,58.18484902381897L50.57117897727273,51.68396759033203L50.62369318181818,59.4598332643509L51.148835227272734,62.26330471038818L52.041576704545456,45.394283533096306L52.14660511363636,60.45203471183776L52.881803977272725,65.17815625667572L53.144375,61.21268427371979L53.24940340909091,56.51316285133361L53.406946022727276,54.993495464324944L53.827059659090914,66.2750209569931L54.14214488636364,58.742790460586555L54.24717329545455,66.16808593273163L54.40471590909091,62.28505885601043L54.719801136363635,62.44366788864135L54.982372159090914,54.083070755004876L26.414644886363636,-14.901385784149182L29.723039772727272,-2.6660327911376953L29.82806818181818,0.08189630508422197L30.458238636363635,2.7782568931579656L30.825838068181817,8.196438789367676L30.878352272727273,7.209997653961175L30.98338068181818,-17.233067274093642L31.088409090909092,-5.47219800949098L31.140923295454545,7.2997994422912535L31.245951704545455,2.639277935028076L31.876122159090908,7.509407281875604L32.03366477272728,13.370268106460578L32.24372159090909,10.375144958496094L32.401264204545456,10.620552539825447L32.55880681818182,9.405766725540161L32.76886363636364,13.686628103256226L32.821377840909086,13.700385332107544L33.031434659090905,10.581362724304192L33.294005681818184,12.982238292694099L33.87166193181818,16.52473878860473L34.08171875,16.826581954956062L34.239261363636366,16.12040567398072L34.659375,15.542869329452508L34.869431818181816,18.57073974609375L35.02697443181818,21.97044920921325L35.079488636363635,22.22311520576477L35.132002840909095,9.8946406841278L35.49960227272727,22.76822781562806L35.8146875,22.599990129470818L35.919715909090904,24.806562423706055L35.972230113636364,15.728718519210808L36.18228693181818,12.69693756103515L36.39234375,21.078902006149292L36.602400568181814,23.548394918441765L36.654914772727274,22.153850793838494L36.86497159090909,15.47283124923706L37.33759943181818,28.82553005218506L37.54765625,4.255963325500488L37.600170454545456,28.57894086837768L37.652684659090916,17.911489963531494L37.757713068181815,29.75080919265747L37.810227272727275,29.827641487121575L38.1253125,30.778747081756585L38.33536931818182,30.832988262176514L38.38788352272728,25.283367156982415L38.49291193181818,28.174678087234497L38.59794034090909,27.458008050918586L38.75548295454546,31.321594953536994L38.8079971590909,24.120388984680176L38.86051136363636,32.62177968025208L38.913025568181816,28.200996875762932L39.07056818181818,31.26732563972474L39.280625,26.959160804748542L39.54319602272727,26.05326557159423L39.595710227272725,28.922773122787483L39.64822443181818,33.00218534469604L39.9633096590909,28.318763256073005L40.85605113636363,41.006444931030266L41.06610795454546,34.93382406234741L41.171136363636364,36.83284211158753L41.433707386363636,33.283477067947395L42.69404829545454,42.05639719963074L42.799076704545456,37.62593650817871L43.06164772727272,33.50905060768127L43.166676136363634,36.91092634201049L43.37673295454546,45.16934299468995L43.48176136363636,46.370638847351074L43.901875,46.39583230018616L44.21696022727272,25.187713623046875L44.42701704545455,48.49366903305053L44.794616477272726,46.34050798416138L44.89964488636364,49.81856894493104L45.214730113636364,48.92655754089355L45.31975852272728,44.76266074180604L45.477301136363636,45.7679934501648L45.63484375,53.978920936584466L46.05495738636364,47.05880975723267L46.10747159090909,51.66286754608154L46.26501420454545,51.799201965332024L46.63261363636364,50.79430532455444L46.79015625,53.03262615203857L47.26278409090909,51.50654435157775L47.472840909090905,54.10196232795716L47.63038352272728,53.53888654708863L47.68289772727273,57.5564615726471L48.155525568181815,56.09272336959838L48.20803977272727,57.26862883567809L48.418096590909094,60.13519644737243L48.523125,57.12640047073365L48.57563920454545,52.667764186859124L48.78569602272727,51.15832328796387L48.83821022727273,56.21826863288879L48.99575284090909,59.70693588256837L49.048267045454544,59.45457935333253L49.46838068181818,62.64546871185302L49.678437499999994,55.879978656768806L49.78346590909091,59.72973799705505L49.88849431818182,60.588699698448174L49.94100852272727,61.674740076065056L50.41363636363637,60.55172538757324L50.57117897727273,57.944660186767585L50.99129261363636,63.537487149238586L51.096321022727274,65.11875259876251L51.358892045454546,59.977128982543945L51.62146306818182,58.875425338745124L51.989062499999996,67.05805766582489L52.67174715909091,59.820229053497314L52.98683238636364,68.08350574970245L53.144375,68.21478319168091L53.24940340909091,66.33085870742798L53.45946022727273,69.99809563159943L53.66951704545455,70.99272358417511L53.77454545454545,67.63134586811066L54.037116477272725,67.01935315132141L54.089630681818186,71.72903776168823L54.14214488636364,72.99730515480042L54.56225852272728,70.74519896507263L54.87734375,72.75809395313263L55.08740056818181,58.522266864776604L55.13991477272727,70.1261236667633L55.66505681818182,72.33000218868256L55.92762784090909,65.68528175354004L56.66282670454545,53.14258551597596L56.767855113636365,69.73733425140381L57.81813920454545,76.43886303901672L57.870653409090906,71.07511925697327L58.08071022727273,74.6910971403122L58.13322443181818,75.24846887588501L58.18573863636363,80.45169055461884L59.13099431818182,81.1661239862442L59.39356534090909,81.68149960041046L59.76116477272727,81.93924367427826L59.81367897727273,81.8748744726181L60.128764204545455,80.71857798099518L60.23379261363636,80.24070417881012L60.49636363636363,82.37960863113403L60.601392045454546,70.15129601955414L61.86173295454546,81.00659358501434L61.96676136363636,84.86684668064117L62.07178977272727,82.98792290687561L62.49190340909091,86.22826373577118L62.649446022727275,79.74153339862823L63.06955965909091,88.72988498210907L63.22710227272727,79.39784181118011L63.38464488636364,88.65986800193785L64.06732954545456,85.78828561306L64.43492897727273,85.26361894607544L64.75001420454545,87.57158398628235L65.06509943181818,89.52803635597229L65.11761363636364,89.52902102470397L65.43269886363636,89.47597551345824L65.9578409090909,91.70707309246062L66.22041193181818,92.57794225215912L66.27292613636364,80.65734565258026L66.43046875,92.57312440872191L66.74555397727273,94.68889617919922L66.85058238636364,89.76662158966066L67.008125,87.56089329719543L67.16566761363637,92.39956951141359L67.32321022727272,88.18694567680359L67.37572443181818,94.91212761402129L68.32098011363637,94.5778818130493L69.10869318181818,77.73213398456573L69.89640625,98.17581212520601L70.05394886363636,98.0155221223831L70.10646306818182,94.21370911598207L70.21149147727273,97.03946220874786L70.26400568181819,93.2664929628372L71.36680397727272,99.48027312755585L71.41931818181818,100.6856483221054L71.68188920454546,96.26401448249817L71.83943181818181,98.06583869457246L72.04948863636363,100.04803311824799L72.15451704545455,97.46383333206178L72.36457386363637,98.05272853374481L72.57463068181818,100.05628323554993L72.7846875,102.87665581703185L74.09754261363635,99.57791006565095L74.15005681818182,88.47846388816833L74.72771306818183,103.55706894397734L75.14782670454545,98.86134552955627L75.20034090909091,102.22851872444154L75.35788352272728,105.90694570541382L75.46291193181818,103.02531969547273L75.51542613636363,103.68282520771025L75.98805397727273,102.4900608062744L76.3556534090909,103.0800039768219L77.14336647727274,104.78134977817537L77.19588068181818,103.05524659156798L77.35342329545455,107.99246001243593L78.35119318181819,106.66421926021575L78.61376420454546,106.20506119728087L78.6662784090909,108.99322807788849L78.77130681818181,104.5819684267044L79.13890625,108.49890327453615L79.50650568181818,109.89725244045256L79.55901988636363,109.31781709194185L80.03164772727273,108.85278618335724L80.24170454545454,111.22275722026824L80.34673295454546,108.65171682834624L80.55678977272727,107.63921010494231L81.02941761363637,109.19276416301726L81.39701704545455,111.75146102905272L81.44953124999999,110.19472086429595L81.71210227272726,105.00683188438414L82.13221590909092,113.07365310192107L82.60484374999999,101.95523798465727L82.65735795454546,110.67687797546385L82.86741477272727,111.95556879043579L83.12998579545454,109.8538496494293L83.28752840909091,113.80612707138062L83.39255681818182,112.00724279880524L83.55009943181818,111.30474495887758L83.70764204545455,113.86525642871858L83.91769886363636,95.29534661769866L84.3378125,115.54954636096956L84.75792613636364,110.4609752893448L84.96798295454545,114.21302735805513L85.12552556818181,115.41182637214662L85.17803977272727,110.92061161994934L85.49312499999999,115.53355956077574L85.54563920454545,112.63255667686461L85.96575284090909,116.41962778568269L86.17580965909092,111.15053880214691L86.22832386363636,98.65013408660889L86.28083806818182,116.19092440605165L86.38586647727273,114.12654531002043L86.5434090909091,116.49809885025026L86.91100852272727,112.03034734725952L86.96352272727272,113.09762275218962L87.38363636363637,114.87484431266785L87.43615056818182,114.87630021572113L87.9087784090909,115.77729320526123L88.11883522727273,116.56089258193971L88.22386363636365,115.61324739456178L88.38140625,117.53813409805298L88.64397727272727,118.56566756963728L88.69649147727273,111.77578938007353L88.80151988636365,118.76898759603499L88.8540340909091,116.63277339935303L88.90654829545454,117.49902868270873L89.16911931818183,114.4644765853882L89.90431818181818,118.7219485640526L90.37694602272727,117.83731865882875L90.69203125,118.0315304994583L91.05963068181818,120.16685849428178L91.11214488636362,120.57306599617006L91.58477272727272,120.7713360786438L91.9523721590909,119.69307810068132L92.58254261363636,119.0168322324753L92.95014204545456,120.87404406070708L93.05517045454546,121.75091969966887L93.26522727272727,110.41475915908813L93.79036931818183,122.41755098104477L93.84288352272728,121.97176682949068L94.00042613636363,120.96323394775389L94.2629971590909,116.988161444664L94.47305397727273,121.47977709770204L95.15573863636364,118.18519508838655L95.31328125,122.23415994644165L95.62836647727273,124.05247032642363L95.68088068181818,122.9828352332115L95.73339488636364,120.77809864282608L96.5736221590909,124.23347002267839L97.51887784090908,125.29540711641312L97.83396306818182,122.38718450069429L98.20156250000001,125.14937722682951L98.51664772727273,126.12904524803163L98.72670454545454,124.39097833633421L98.83173295454546,122.2295812368393L98.93676136363636,125.95237809419632L99.25184659090908,124.18609338998795L99.40938920454546,125.2884652018547L99.51441761363637,122.04990029335023L99.67196022727273,125.63671088218689L99.82950284090909,126.10520219802858L99.98704545454547,123.14310061931609L100.45967329545454,126.03516060113908L100.56470170454546,127.38605576753615L101.1948721590909,127.68686503171921L101.24738636363637,124.55880457162857L101.29990056818181,125.40245819091797L102.03509943181818,127.42762285470961L102.24515625,125.70881325006484L102.45521306818182,127.93014854192734L102.66526988636365,128.16672575473785L102.71778409090909,125.77388226985931L102.87532670454544,128.0495572090149L102.98035511363636,126.75234055519105L103.08538352272727,128.07674461603165L103.50549715909092,127.79294902086257L103.61052556818181,122.74740445613863L103.7680681818182,129.77650088071823L103.92561079545455,127.87842178344727L104.08315340909091,128.59752535820007L104.18818181818182,128.61847066879272L104.34572443181817,128.969336271286L104.50326704545455,127.69050127267839L105.34349431818183,130.09416556358337L105.71109375,130.12433862686157L105.97366477272728,129.52215039730072L106.02617897727272,125.41921514272688L106.07869318181818,129.350163936615L106.1837215909091,128.41996145248413L106.23623579545455,129.04642528295517L106.34126420454545,128.49647372961044L106.44629261363637,128.90825867652893L106.65634943181817,107.7365164756775L106.86640625,126.37387257814407L107.12897727272727,131.0486155152321L107.23400568181818,131.04320687055588L107.60160511363637,131.44159680604935L107.75914772727272,124.69830399751665L108.02171875,129.573810338974L108.23177556818182,131.5553119778633L108.4943465909091,130.9708935022354L108.599375,128.63473880290985L108.65188920454545,129.29110842943192L109.17703125,131.84015202522278L109.22954545454546,131.24360102415085L109.43960227272727,132.14178770780563L109.59714488636364,132.26854974031448L109.7546875,131.7777275443077L109.80720170454545,130.35846823453903L109.96474431818183,131.7302102446556L110.01725852272727,130.42979341745377L110.12228693181818,132.35105443000793L110.38485795454545,126.85522437095644L110.4373721590909,130.02941304445267L110.80497159090908,123.49238371849061L110.85748579545455,124.64853954315187L111.06754261363636,132.35755676031113L111.17257102272728,131.6768130660057L111.27759943181817,133.03727006912231L111.48765625,132.74037837982178L112.01279829545456,131.28362780809402L112.11782670454545,133.00701612234116L112.22285511363636,133.60485070943832L112.27536931818183,131.68663161993027L112.48542613636363,132.1144244670868L112.64296875000001,132.8765475153923L113.06308238636363,133.3402983546257L113.27313920454546,133.81803500652313L114.00833806818181,134.92423647642136L114.21839488636364,133.77179777622223L114.32342329545453,133.51634657382965L114.58599431818182,132.8359545469284L114.63850852272728,133.6384841799736L114.74353693181818,134.2323273420334L114.84856534090909,131.881529211998L114.90107954545454,132.9374492764473L115.00610795454546,132.7339780330658L115.11113636363636,123.12552428245543L115.16365056818181,134.87104326486588L115.53125,135.5850687623024L115.68879261363637,135.03992801904678L115.95136363636364,135.72235268354416L116.58153409090909,136.09455746412277L116.79159090909091,135.36564940214157L116.94913352272727,136.15746372938156L117.47427556818181,135.37267923355103L117.78936079545454,134.7509418129921L117.84187499999999,136.21793293952942L117.94690340909091,136.6203670501709L118.10444602272727,136.63377261161804L118.26198863636364,132.6926008462906L118.31450284090909,134.42291700839996L118.36701704545455,136.21441274881363L118.89215909090909,136.3336033821106L118.94467329545454,136.33657145500183L118.9971875,136.06516510248184L119.10221590909092,135.9426652789116L119.73238636363637,136.9234797358513L119.78490056818181,137.53841239213943L119.83741477272727,136.0117151737213L119.88992897727272,136.3548300266266L120.31004261363637,137.33300697803497L120.78267045454545,129.2973751425743L121.67541193181819,136.51871758699417L122.41061079545455,137.08566170930862L122.62066761363637,135.44114184379578L122.67318181818182,137.49646198749542L122.77821022727272,138.44771879911423L123.19832386363638,136.4333397746086L123.30335227272727,138.18256509304047L123.5134090909091,132.97470140457153L124.03855113636364,136.39891505241394L124.45866477272727,138.5932493209839L124.51117897727272,139.16513085365295L125.08883522727272,134.12421423196793L125.50894886363638,138.87677413225174L125.8240340909091,139.0560401082039L125.87654829545455,139.26170927286148L125.98157670454545,137.5953614115715L126.08660511363637,138.80297672748566L126.34917613636362,139.65605503320694L127.34694602272728,139.76162558794022L127.66203125,138.22306311130524L127.71454545454546,138.90826243162155L128.2396875,140.55694603919983L128.3447159090909,137.39013183116913L128.5022585227273,140.18919336795807L128.55477272727273,139.9274578690529L128.60728693181818,140.64970535039902L129.18494318181817,140.84884053468704L129.34248579545456,139.69448173046112L129.65757102272727,141.0081951022148L129.92014204545455,134.265651345253L130.02517045454545,140.59552747011185L130.13019886363637,141.22782546281815L130.2352272727273,140.1829372048378L130.70785511363636,140.50780403614044L130.91791193181817,141.74911963939667L131.12796875,141.37223064899445L131.2329971590909,140.46671169996262L131.39053977272727,132.6553944349289L131.86316761363636,142.43734681606293L131.9156818181818,140.4679812192917L132.44082386363635,142.67714881896973L132.54585227272727,141.82127475738525L133.17602272727274,142.66496002674103L133.22853693181818,141.15637016296387L133.28105113636363,131.54784256219864L133.33356534090908,139.14372485876083L133.49110795454547,142.5033336877823L133.70116477272728,142.5825924873352L134.01625,141.1532227396965L134.06876420454546,141.19329524040222L134.22630681818183,142.24774885177612L134.64642045454545,143.22368568181992L134.90899147727274,140.81951147317886L135.0665340909091,143.54689967632294L135.22407670454547,142.832501411438L135.2765909090909,143.01280480623245L135.59167613636365,143.45911997556686L135.69670454545454,143.23278331756592L136.01178977272727,143.34669190645218L136.16933238636364,129.94381719827652L136.326875,140.84645974636078L136.58944602272726,143.468987762928L137.5872159090909,144.07840275764465L137.7972727272727,141.78097718954086L137.90230113636363,144.11084407567978L138.16487215909092,143.84432590007782L138.42744318181818,144.0763525366783L139.1101278409091,144.1012083888054L139.32018465909093,144.33060455322266L139.47772727272726,143.90315282344818L140.2654403409091,144.7141506075859L140.84309659090908,144.64344084262848L140.89561079545456,144.39838141202927L141.05315340909092,144.83730101585388L141.36823863636363,145.4159345626831L141.7358380681818,144.0794085264206L141.78835227272728,141.04492676258087L141.84086647727273,145.22353732585907L141.89338068181817,145.4108037352562L141.94589488636365,145.2445142865181L141.9984090909091,144.19941502809525L142.41852272727272,144.35396230220795L143.62634943181817,143.69822216033936L143.67886363636362,145.65021538734436L143.7313778409091,144.2846838235855L144.09897727272727,145.5817527770996L144.67663352272726,145.0187789797783L144.7816619318182,130.05444824695587L145.41183238636364,135.5163072347641L145.4643465909091,142.1940457224846L145.62188920454545,146.15677118301392L145.72691761363635,146.23736280202866L145.77943181818182,144.91924303770065L145.88446022727274,146.0665544271469L146.88223011363635,145.09326565265656L147.14480113636364,136.4228003025055L147.30234375,146.64342963695526L147.45988636363637,146.10803359746933L147.93251420454544,147.0253650546074L147.98502840909092,146.1162766814232L148.30011363636365,146.7241232395172L148.40514204545454,146.59335219860077L148.45765625,147.06898939609528L148.77274147727272,147.54390215873718L148.9302840909091,147.26050394773483L149.24536931818182,147.02069491147995L149.3503977272727,146.19935810565948L149.45542613636366,147.42703956365585L149.61296875,147.79291081428528L150.34816761363635,146.5563497543335L150.45319602272727,139.70154321193695L150.50571022727271,147.57313978672028L150.55822443181816,147.7309329509735L151.13588068181818,147.48445630073547L151.66102272727272,148.3927973806858L152.08113636363638,147.7894169986248L152.9738778409091,146.144733607769L153.34147727272727,148.164957344532L153.39399147727272,148.71522891521454L153.55153409090912,147.7616686820984L154.07667613636363,148.86347606778145L154.39176136363636,147.26696759462357L154.60181818181817,148.49315798282623L154.86438920454546,148.65582701563835L154.96941761363635,148.9926892220974L155.07444602272727,148.586724370718L155.17947443181816,148.94935148954391L155.2845028409091,148.4531171321869L155.49455965909092,149.03341582417488L155.54707386363637,147.97077891230583L155.7046164772727,148.98478373885155L156.01970170454547,135.65515607595444L156.12473011363636,149.26463186740875L156.28227272727273,148.63645541667938L156.70238636363638,148.4828963279724L156.80741477272727,148.5031699538231L156.85992897727272,147.63132491707802L156.91244318181816,149.49674466252327L157.3325568181818,149.47856697440147L158.12026988636362,149.7835610806942L158.22529829545456,149.12295562028885L158.33032670454546,149.28753244876862L158.43535511363638,149.8349115550518L158.54038352272727,149.57649755477905L159.01301136363637,149.56705176830292L159.22306818181818,149.6814245581627L159.9057528409091,150.13686901330948L160.11580965909093,149.9175727367401L161.11357954545454,150.03232884407043L161.90129261363637,149.4202693104744L161.95380681818182,150.3976638019085L162.26889204545452,140.0389540195465L162.32140625000002,150.6899275481701L162.42643465909092,147.6405544281006L162.58397727272728,150.29757398366928L162.84654829545454,151.15909758210182L163.05660511363638,148.56503528356552L163.16163352272727,150.4289833009243L164.00186079545455,150.71722221374512L164.36946022727273,151.247728317976L164.57951704545454,151.06364274024963L164.94711647727271,151.21598681807518L164.9996306818182,151.04115360975266L165.36723011363637,150.37231209874153L165.52477272727273,151.37121984362602L166.78511363636363,151.9121616780758L166.94265625,151.78489676117897L167.31025568181818,152.08214715123177L167.46779829545454,151.77788627147675L167.5203125,150.31316339969635L167.62534090909094,151.7587766647339L167.67785511363638,148.72914791107178L168.04545454545453,151.4232578277588L168.15048295454545,152.21104907989502L168.72813920454544,151.4266795516014L168.99071022727273,151.22991812229156L169.46333806818183,151.89854687452316L169.56836647727272,152.13956740498543L169.67339488636364,152.28709363937378L169.88345170454545,152.3554015159607L170.04099431818182,151.58340188860893L170.72367897727273,152.77877390384674L170.82870738636365,151.51629143953323L171.14379261363638,152.04429191350937L171.56390625,152.33041203022003L171.87899147727273,151.89010861516L171.93150568181818,139.2309559583664L171.98401988636363,152.76941603422165L172.19407670454544,151.94748491048813L172.45664772727272,151.48801386356354L172.8242471590909,152.7333841919899L173.24436079545455,153.2530941069126L173.45441761363634,150.84408271312714L173.66447443181818,152.92877587676048L173.7695028409091,153.14641228318214L174.08458806818183,153.26550444960594L174.2421306818182,153.18935790657997L174.3471590909091,143.3319429755211L174.4521875,153.44095307588577L174.5572159090909,152.72414588928223L174.7147585227273,153.29160872101784L174.97732954545455,153.05571374297142L175.6075,152.5531370639801L175.87007102272727,153.22637969255447L176.13264204545453,153.306616127491L177.07789772727273,151.58678141236305L177.28795454545454,153.95550754666328L177.4454971590909,153.88672667741776L177.7080681818182,153.55718618631363L178.07566761363634,153.72847107052803L178.28572443181818,153.90089535713196L178.3907528409091,154.19567528367043L178.7058380681818,153.38638484477997L178.75835227272728,153.16950979828835L179.0734375,153.56020349264145L179.4410369318182,153.10543423891068L179.7561221590909,154.07443970441818L179.91366477272726,150.44170486927032L180.22875,154.19928514957428L180.80640625,153.98506519198418L180.9114346590909,154.02820071578026L181.2790340909091,154.4850993156433L181.43657670454544,152.86563575267792L181.5941193181818,145.12478911876678L181.69914772727273,154.3329275548458L181.96171875,154.59014588594437L182.80194602272726,154.3313767015934L182.90697443181818,154.90455412864685L182.95948863636366,154.9141018986702L183.16954545454544,152.63526371121407L183.22205965909092,154.05334669351578L183.4321164772727,154.66943281888962L183.53714488636365,154.20401859283447L183.85223011363635,153.18581134080887L183.9047443181818,154.92835673689842L184.27234375,155.2516252398491L184.90251420454547,154.00703912973404L185.16508522727273,154.56791698932648L185.3226278409091,145.15971672534943L185.79525568181816,154.76779946684837L185.84776988636364,155.51349964737892L186.16285511363637,154.28869131207466L186.2153693181818,155.0101721584797L186.95056818181817,155.48952120542526L187.160625,148.0101217031479L187.2656534090909,155.48090535402298L187.37068181818182,155.84057846665382L187.52822443181816,154.08308720588684L187.68576704545455,154.53025868535042L188.15839488636365,155.7774928510189L188.47348011363636,155.24542182683945L188.57850852272728,155.2113698720932L189.15616477272727,155.8329015672207L189.2086789772727,155.72684571146965L189.52376420454547,155.3010714352131L189.89136363636362,154.8313492834568L191.15170454545455,156.2515282034874L191.30924715909092,155.68871793150902L191.46678977272728,156.2417149245739L191.57181818181817,156.25373843312263L192.6746164772727,156.51397055387497L192.83215909090907,156.64250499010086L193.0422159090909,156.66667860746384L193.09473011363636,156.39917048811913L193.1472443181818,155.95104774832726L193.46232954545457,156.2907654941082L193.6198721590909,156.4399726986885L193.72490056818182,156.42954224348068L194.19752840909092,155.03355979919434L194.56512784090907,154.34070819616318L194.82769886363636,156.93847706913948L195.2478125,156.67331105470657L195.45786931818182,157.03363651037216L195.5628977272727,156.7116322517395L195.66792613636363,155.66871508955956L196.35061079545454,156.69190722703934L196.45563920454546,156.77285227179527L196.61318181818183,157.17061272263527L197.24335227272726,157.37724721431732L197.45340909090908,157.3305194079876L197.71598011363636,157.02612313628197L197.82100852272728,157.06205826997757L198.34615056818183,156.37276729941368L198.45117897727272,156.9861297607422L198.55620738636364,157.25522741675377L199.23889204545452,155.7596756219864L199.55397727272728,156.5297340452671L200.07911931818182,156.63719129562378L200.34169034090908,155.45004829764366L200.7092897727273,157.4752446115017L200.86683238636363,157.09353250265121L200.97186079545455,157.44545134902L202.02214488636363,145.7796641588211L202.07465909090908,156.9617855846882L202.12717329545453,157.02951496839523L202.3897443181818,157.7085776925087L202.49477272727273,157.66007748246193L202.80985795454544,157.51624727249146L203.01991477272728,157.3091081380844L203.44002840909093,157.76698964834213L203.75511363636363,157.9884170293808L203.80762784090908,156.52073487639427L204.01768465909092,157.47643852233887L204.59534090909094,158.1629794538021L204.91042613636364,158.22355768084526L205.22551136363637,157.64522129297256L205.38305397727274,156.04208213090897L206.17076704545454,152.74127912521362L206.38082386363638,158.39576569199562L206.74842329545453,158.20302733778954L206.95848011363637,158.52564173936844L207.22105113636363,158.4494143128395L207.48362215909088,158.50777703523636L207.69367897727273,152.12231108546257L207.7461931818182,157.9270774424076L207.8512215909091,157.53570327162743L208.3238494318182,158.91840147972107L208.37636363636364,158.03496372699738L208.95401988636362,158.30112671852112L209.05904829545455,154.12876880168915L209.1115625,158.93129536509514L209.4791619318182,158.85736256837845L209.5841903409091,150.2565519809723L209.63670454545453,158.02647095918655L209.68921874999998,158.44062614440918L209.74173295454545,158.86243185400963L209.9517897727273,158.8938586115837L210.0568181818182,158.35011926293373L211.2121306818182,158.23995065689087L211.36967329545453,159.22470027208328L212.1048721590909,159.0855700969696L212.3674431818182,159.15407490730286L212.41995738636365,159.2604349553585L212.52498579545454,159.15869230031967L212.9450994318182,159.20929196476936L213.20767045454545,159.21714293956757L213.57526988636363,159.38106390833855L215.04566761363634,159.65692764520645L215.41326704545455,159.2654040157795L215.99092329545454,159.59227710962296L216.2534943181818,159.393905043602L216.7261221590909,159.82452178001404L216.77863636363637,159.8834172785282L217.35629261363636,159.70446428656578L217.4088068181818,159.0880634188652L217.51383522727275,160.18025973439217L217.61886363636364,159.71390479803085L217.72389204545456,159.39190581440926L217.77640625,159.16762992739677L217.82892045454545,159.95279070734978L217.93394886363635,159.91188651323318L218.87920454545454,157.37774834036827L219.1417755681818,159.74921396374702L219.40434659090909,159.5674142241478L219.56188920454545,160.14386743307114L219.71943181818182,150.8397572040558L219.9820028409091,160.3701882660389L220.5596590909091,160.24660003185272L221.0322869318182,159.9783920943737L221.18982954545456,159.71564027667046L221.24234375,160.2648849785328L221.7149715909091,157.33572936058044L222.0300568181818,160.1818791627884L222.8702840909091,160.03882613778114L223.1853693181818,159.6776707470417L223.39542613636365,160.27493211627007L223.55296875000002,160.6322807073593L223.86805397727272,160.32762771844864L223.97308238636364,160.58327585458755L224.4457102272727,159.00022745132446L224.65576704545455,160.78851422667503L224.97085227272726,160.5620351433754L225.23342329545454,160.90850138664246L225.54850852272727,160.74446260929108L225.75856534090912,160.73763850331306L226.02113636363637,160.96660739183426L226.38873579545455,160.90033918619156L226.59879261363636,161.0094105899334L227.07142045454546,160.57742938399315L227.22896306818183,161.18022072315216L227.85913352272726,160.86390644311905L228.22673295454547,160.7578839957714L228.3842755681818,161.03598433732986L228.48930397727273,161.28498595952988L228.54181818181817,161.30791115760803L228.751875,160.8819381892681L228.80438920454546,160.9432777762413L228.8569034090909,161.06078919768333L229.48707386363637,161.3244870007038L229.80215909090907,161.1320844888687L229.85467329545455,161.15713199973106L229.95970170454547,161.45606511831284L230.22227272727272,161.25396010279655L230.27478693181817,160.6481918990612L230.43232954545456,161.5142098069191L230.74741477272727,161.28325048089027L230.95747159090908,161.37321931123734L231.32507102272726,161.4541678726673L231.85021306818183,161.27880188822746L232.16529829545453,161.12677782773972L232.37535511363637,161.20874974131584L232.5328977272727,160.98439648747444L232.95301136363636,161.5157694518566L233.05803977272728,161.59172785282135L233.74072443181817,161.1357066631317L233.95078125,160.62440687417984L234.00329545454548,161.425501704216L235.0010653409091,160.99871110916138L235.05357954545454,161.6448841392994L235.21112215909093,157.70749455690384L235.57872159090908,161.7991799712181L235.68374999999997,161.75677239894867L236.10386363636363,161.39503148198128L236.20889204545455,161.89444315433502L236.26140625,161.63787013292313L236.94409090909093,161.76427698135376L237.04911931818182,159.84623020887375L237.10163352272727,161.44709408283234L237.57426136363637,160.3606862127781L237.73180397727273,161.8831282556057L238.30946022727272,161.96633452177048L238.4670028409091,161.20194673538208L238.57203124999998,162.08509787917137L238.67705965909093,161.14242878556252L239.30723011363636,161.8990394473076L240.1999715909091,161.39237287640572L240.46254261363637,161.77819070219994L240.98768465909092,161.94289237260818L241.30276988636365,162.33300405740738L241.67036931818183,161.7714228630066L241.98545454545453,161.39030155539513L242.09048295454545,162.2115381360054L242.3005397727273,162.10880905389786L242.66813920454544,162.32749518752098L242.7206534090909,162.44527915120125L242.7731676136364,162.3078114837408L243.2983096590909,162.728331848979L244.13853693181818,162.8445860594511L244.40110795454544,162.55554622411728L244.66367897727272,162.1873697936535L244.92624999999998,158.8083752989769L244.97876420454546,162.75667360424995L245.08379261363635,162.82372426986694L245.24133522727274,158.82139226794243L245.7664772727273,162.4662077575922L245.9765340909091,162.56394755840302L246.02904829545454,160.00507485866547L246.34413352272728,162.4417123645544L246.5541903409091,162.85862374305725L246.60670454545453,161.44030866026878L247.0268181818182,162.89419753849506L247.18436079545455,162.9639050513506L247.236875,158.7362025976181L247.3419034090909,162.6474079042673L247.49944602272728,161.45071801543236L247.55196022727273,163.00733949244022L247.60447443181818,162.80188924074173L247.65698863636365,162.6375937461853L247.86704545454543,162.70166930556297L247.97207386363635,156.43537992238998L248.12961647727275,163.05486822128296L248.1821306818182,162.88051064312458L248.23464488636364,163.05657029151917L248.28715909090909,162.9826823323965L248.3921875,163.03305077552795L248.54973011363634,162.96739798784256L248.6022443181818,163.06294690072536L248.91732954545455,162.62321582436562L249.23241477272728,162.80940437316895L249.3374431818182,162.95555998384953L249.49498579545454,163.25127798318863L250.12515625,163.14483968913555L250.54526988636366,163.17437095940113L250.5977840909091,156.40277156233788L250.65029829545455,161.86133015155792L250.96538352272728,163.36406826972961L251.33298295454546,159.4580773115158L251.59555397727274,162.8330962061882L251.9631534090909,163.39923325181007L252.17321022727273,163.21765945851803L252.6458380681818,163.33614763617516L252.96092329545453,163.3989580720663L253.06595170454545,163.12856452167034L253.22349431818182,163.59807215631008L253.59109375,163.52406990528107L253.90617897727273,163.50490315258503L254.0637215909091,163.29382006824017L254.16875,163.5162303596735L254.22126420454546,163.72961950302124L254.69389204545456,163.6810032427311L255.2190340909091,163.10186065733433L255.27154829545455,163.50291535258293L255.6916619318182,163.60197126865387L256.32183238636367,163.7186325341463L256.479375,163.5475744754076L256.63691761363634,162.52995362877846L257.31960227272725,163.686976313591L257.73971590909093,162.92985397577286L258.15982954545456,164.0203561335802L258.21234375,163.83930368721485L258.36988636363634,163.61585949361324L258.4749147727273,163.96952173113823L258.52742897727273,163.63333208858967L259.2626278409091,152.8000568151474L259.5777130681818,163.74280351400375L259.6827414772727,164.03332650661469L260.4704545454546,164.12805515527725L260.8380539772727,163.9055173844099L261.1531392045455,164.12193174660206L261.3106818181818,163.50081765651703L261.36319602272727,163.33254480361938L261.5207386363636,163.71869583427906L261.67828125,164.19655381143093L262.0458806818182,163.99821603298187L262.3609659090909,164.00094057619572L262.4659943181818,163.19896394014359L262.51850852272725,164.00017042458057L262.5710227272727,162.8594536781311L262.8861079545455,164.24563866853714L263.1486789772727,162.9615814089775L263.8313636363636,163.5283013433218L264.6190767045455,163.99811229109764" style="fill: none;" fill="none"></path></g></g></g></g></g></g><g transform="translate(41, 177)" clip-path="url(#clip_1)"><clipPath id="clip_1"><rect width="288" height="23"></rect></clipPath><g><g><line x1="0" y1="0" x2="0" y2="5" style="visibility: inherit;" fill="rgb(0, 0, 0)" stroke="rgb(204, 204, 204)" stroke-width="1px"></line><line x1="26.257102272727273" y1="0" x2="26.257102272727273" y2="5" style="visibility: inherit;" fill="rgb(0, 0, 0)" stroke="rgb(204, 204, 204)" stroke-width="1px"></line><line x1="52.51420454545455" y1="0" x2="52.51420454545455" y2="5" style="visibility: inherit;" fill="rgb(0, 0, 0)" stroke="rgb(204, 204, 204)" stroke-width="1px"></line><line x1="78.77130681818181" y1="0" x2="78.77130681818181" y2="5" style="visibility: inherit;" fill="rgb(0, 0, 0)" stroke="rgb(204, 204, 204)" stroke-width="1px"></line><line x1="105.0284090909091" y1="0" x2="105.0284090909091" y2="5" style="visibility: inherit;" fill="rgb(0, 0, 0)" stroke="rgb(204, 204, 204)" stroke-width="1px"></line><line x1="131.28551136363635" y1="0" x2="131.28551136363635" y2="5" style="visibility: inherit;" fill="rgb(0, 0, 0)" stroke="rgb(204, 204, 204)" stroke-width="1px"></line><line x1="157.54261363636363" y1="0" x2="157.54261363636363" y2="5" style="visibility: inherit;" fill="rgb(0, 0, 0)" stroke="rgb(204, 204, 204)" stroke-width="1px"></line><line x1="183.7997159090909" y1="0" x2="183.7997159090909" y2="5" style="visibility: inherit;" fill="rgb(0, 0, 0)" stroke="rgb(204, 204, 204)" stroke-width="1px"></line><line x1="210.0568181818182" y1="0" x2="210.0568181818182" y2="5" style="visibility: inherit;" fill="rgb(0, 0, 0)" stroke="rgb(204, 204, 204)" stroke-width="1px"></line><line x1="236.31392045454547" y1="0" x2="236.31392045454547" y2="5" style="visibility: inherit;" fill="rgb(0, 0, 0)" stroke="rgb(204, 204, 204)" stroke-width="1px"></line><line x1="262.5710227272727" y1="0" x2="262.5710227272727" y2="5" style="visibility: inherit;" fill="rgb(0, 0, 0)" stroke="rgb(204, 204, 204)" stroke-width="1px"></line><line x1="288.828125" y1="0" x2="288.828125" y2="5" style="visibility: inherit;" fill="rgb(0, 0, 0)" stroke="rgb(204, 204, 204)" stroke-width="1px"></line></g><g transform="translate(0, 8)"><text x="0" y="0" dx="0em" dy="0.95em" style="text-anchor: middle; visibility: hidden; font-family: Roboto, sans-serif; font-size: 12px; font-weight: 200;" fill="rgb(33, 33, 33)" stroke="none" stroke-width="1px">-500</text><text x="26.257102272727273" y="0" dx="0em" dy="0.95em" style="text-anchor: middle; visibility: inherit; font-family: Roboto, sans-serif; font-size: 12px; font-weight: 200;" fill="rgb(33, 33, 33)" stroke="none" stroke-width="1px">0</text><text x="52.51420454545455" y="0" dx="0em" dy="0.95em" style="text-anchor: middle; visibility: inherit; font-family: Roboto, sans-serif; font-size: 12px; font-weight: 200;" fill="rgb(33, 33, 33)" stroke="none" stroke-width="1px">500</text><text x="78.77130681818181" y="0" dx="0em" dy="0.95em" style="text-anchor: middle; visibility: inherit; font-family: Roboto, sans-serif; font-size: 12px; font-weight: 200;" fill="rgb(33, 33, 33)" stroke="none" stroke-width="1px">1k</text><text x="105.0284090909091" y="0" dx="0em" dy="0.95em" style="text-anchor: middle; visibility: inherit; font-family: Roboto, sans-serif; font-size: 12px; font-weight: 200;" fill="rgb(33, 33, 33)" stroke="none" stroke-width="1px">1.5k</text><text x="131.28551136363635" y="0" dx="0em" dy="0.95em" style="text-anchor: middle; visibility: inherit; font-family: Roboto, sans-serif; font-size: 12px; font-weight: 200;" fill="rgb(33, 33, 33)" stroke="none" stroke-width="1px">2k</text><text x="157.54261363636363" y="0" dx="0em" dy="0.95em" style="text-anchor: middle; visibility: inherit; font-family: Roboto, sans-serif; font-size: 12px; font-weight: 200;" fill="rgb(33, 33, 33)" stroke="none" stroke-width="1px">2.5k</text><text x="183.7997159090909" y="0" dx="0em" dy="0.95em" style="text-anchor: middle; visibility: inherit; font-family: Roboto, sans-serif; font-size: 12px; font-weight: 200;" fill="rgb(33, 33, 33)" stroke="none" stroke-width="1px">3k</text><text x="210.0568181818182" y="0" dx="0em" dy="0.95em" style="text-anchor: middle; visibility: inherit; font-family: Roboto, sans-serif; font-size: 12px; font-weight: 200;" fill="rgb(33, 33, 33)" stroke="none" stroke-width="1px">3.5k</text><text x="236.31392045454547" y="0" dx="0em" dy="0.95em" style="text-anchor: middle; visibility: inherit; font-family: Roboto, sans-serif; font-size: 12px; font-weight: 200;" fill="rgb(33, 33, 33)" stroke="none" stroke-width="1px">4k</text><text x="262.5710227272727" y="0" dx="0em" dy="0.95em" style="text-anchor: middle; visibility: inherit; font-family: Roboto, sans-serif; font-size: 12px; font-weight: 200;" fill="rgb(33, 33, 33)" stroke="none" stroke-width="1px">4.5k</text><text x="288.828125" y="0" dx="0em" dy="0.95em" style="text-anchor: middle; visibility: hidden; font-family: Roboto, sans-serif; font-size: 12px; font-weight: 200;" fill="rgb(33, 33, 33)" stroke="none" stroke-width="1px">5k</text></g><line x1="0" y1="0" x2="288.828125" y2="0" fill="rgb(0, 0, 0)" stroke="rgb(204, 204, 204)" stroke-width="1px"></line></g></g></g></g></svg>